<svg id="Layer_1" data-name="Layer 1" xmlns="http://www.w3.org/2000/svg" viewBox="0 0 62.54 57.81"><path d="M51.37,56.28c3.43-.08,6.65-.15,9.86-.47a57,57,0,0,0,14.62-3,11.8,11.8,0,0,0,3.73-2c1.1-1,1.1-1.82,0-2.77-.32-.28-.67-.51-1-.77a1.05,1.05,0,0,1-.38-1.53,1.15,1.15,0,0,1,1.56-.38c1.75,1,3,2.4,3,4.59a36.9,36.9,0,0,1-.47,6.13A31.73,31.73,0,0,1,79.1,66C75.36,73,69.44,77.26,61.79,79.2a42.19,42.19,0,0,1-11.9,1.17,37.73,37.73,0,0,1-11.39-2A25.17,25.17,0,0,1,24.37,66.8a31,31,0,0,1-3.71-11.17A25.45,25.45,0,0,1,20.34,49a4.75,4.75,0,0,1,1.91-3,8.51,8.51,0,0,1,1.43-.92,1.13,1.13,0,1,1,1.1,2,6.09,6.09,0,0,0-1.88,1.54,1.27,1.27,0,0,0,0,1.63,5.1,5.1,0,0,0,1.75,1.45,26.51,26.51,0,0,0,7.53,2.66A75.64,75.64,0,0,0,40.9,55.7C44.45,56.08,48,56.14,51.37,56.28ZM22.63,53.14a33.16,33.16,0,0,0,1.32,7c2.27,7.27,6.7,12.63,13.85,15.56A34.39,34.39,0,0,0,49.45,78a39.62,39.62,0,0,0,13-1.37,23.21,23.21,0,0,0,13.11-9.18,29.79,29.79,0,0,0,4.84-14.36,21.54,21.54,0,0,1-5.27,2.4,64,64,0,0,1-12.42,2.39c-3,.33-6.11.51-9.18.57a103.35,103.35,0,0,1-15.62-.86,61.78,61.78,0,0,1-8.94-1.79A23.39,23.39,0,0,1,22.63,53.14Z" transform="translate(-20.23 -22.6)"/><path d="M55.56,37a7.22,7.22,0,0,1-.17,1.56c-.16.39,0,.63.4.74a5.8,5.8,0,0,1,2.08,1.07,1.13,1.13,0,0,1,.32,1.56,1.09,1.09,0,0,1-1.62.27,6.08,6.08,0,0,0-2.73-1c-1.26-.13-1.59-.81-1.07-2a5.35,5.35,0,0,0-4.58-7.67,5.46,5.46,0,0,0-2.5.55c-1,.45-1.85-.07-1.77-1.18a5.22,5.22,0,0,0-4.83-5.46,5.31,5.31,0,0,0-5.6,4,5.12,5.12,0,0,0,.64,4.1c.62,1,.19,1.86-1,2a5.28,5.28,0,0,0-4.4,3.84,5.43,5.43,0,0,0,2,5.65c.17.12.34.21.5.33a1.11,1.11,0,0,1,.05,1.91A5.65,5.65,0,0,0,29.14,50a1.15,1.15,0,0,1-1.51.83A1.21,1.21,0,0,1,27,49.26a6.75,6.75,0,0,1,1.44-2.47c.27-.28.26-.43,0-.71a7.64,7.64,0,0,1-2.13-5.35A7.5,7.5,0,0,1,31,33.81c.54-.22.54-.44.4-.9a7.57,7.57,0,1,1,14.6-4c.12.5.34.63.82.54A7.53,7.53,0,0,1,55.56,37Z" transform="translate(-20.23 -22.6)"/><path d="M77,45.08a13.35,13.35,0,0,1-.88,5.42c-.31.81-.88,1.12-1.52.87s-.89-.81-.61-1.64c1.82-5.44.54-10.23-3.07-14.52-.83-1-.86-1-1.68,0q-5.79,7-11.56,13.93c-1.33,1.59-2.66,3.19-4,4.76a1.16,1.16,0,0,1-1.64.19,1.18,1.18,0,0,1,0-1.66q2.74-3.36,5.51-6.7l6.24-7.54c1.5-1.81,3-3.63,4.51-5.42a2.3,2.3,0,0,1,3.41-.11,18.08,18.08,0,0,1,5.31,10.47A13.81,13.81,0,0,1,77,45.08Z" transform="translate(-20.23 -22.6)"/><path d="M68.79,40.18a4,4,0,0,1,4,3.68,10.11,10.11,0,0,1-2.93,8.63c-.59.65-1.24.7-1.75.22s-.52-1.1.12-1.79a7.91,7.91,0,0,0,2.32-6.74A1.83,1.83,0,0,0,67.38,43a5.34,5.34,0,0,0-1.57,3.5,5.92,5.92,0,0,1-4.75,5.28c-.9.24-1.67.48-1.72,1.67a1.11,1.11,0,0,1-2.2-.2A3.31,3.31,0,0,1,59.38,50a4.77,4.77,0,0,1,1-.37,3.64,3.64,0,0,0,3.15-3.33,8.74,8.74,0,0,1,1.32-3.79A4.6,4.6,0,0,1,68.79,40.18Z" transform="translate(-20.23 -22.6)"/><path d="M40.58,40.67c-.37-1.39-.71-2.64-1-3.88-.23-.87,0-1.46.62-1.66s1.29.12,1.54,1q1.5,5.34,3,10.69c.05.16.12.32.22.58.7-1.22,1.36-2.36,2-3.52A1.18,1.18,0,0,1,48,43.21,1.24,1.24,0,0,1,49,44c.2.45,0,.78-.23,1.11C47.9,46.77,47,48.41,46,50a1.55,1.55,0,0,0-.16,1.3c.14.52.32,1,.42,1.56a1.06,1.06,0,0,1-.82,1.3,1.13,1.13,0,0,1-1.4-.89c-.46-1.65-.9-3.31-1.35-5-.36-1.32-.73-2.64-1.08-4a1.31,1.31,0,0,0-.7-.87c-1.51-.83-3-1.69-4.5-2.54-.78-.45-1-1-.63-1.7s1-.71,1.72-.29Z" transform="translate(-20.23 -22.6)"/><path d="M58.14,22.6A7.47,7.47,0,0,1,64,25.67a11,11,0,0,1,2.43,5.77c.09.75-.23,1.21-.86,1.31a1.12,1.12,0,0,1-1.38-1,9.31,9.31,0,0,0-2.13-4.87,4.76,4.76,0,0,0-3.94-2,4.5,4.5,0,0,0-3.93,2.63c-.2.4-.38.82-.88.9a1.12,1.12,0,0,1-1.16-.32,1.22,1.22,0,0,1-.08-1.39,6.79,6.79,0,0,1,4.3-3.78A5.37,5.37,0,0,1,58.14,22.6Z" transform="translate(-20.23 -22.6)"/><path d="M60.83,37.35a1.28,1.28,0,0,1-1.1,1.49c-.69,0-1.22-.52-1.22-1.38a29.17,29.17,0,0,0-1.14-7.71,1.13,1.13,0,0,1,.84-1.55c.6-.16,1.12.18,1.34.93A34.18,34.18,0,0,1,60.83,37.35Z" transform="translate(-20.23 -22.6)"/><path d="M67,48a1.16,1.16,0,0,1,1.17,1.1A1.21,1.21,0,0,1,67,50.24a1.25,1.25,0,0,1-1.15-1.14A1.34,1.34,0,0,1,67,48Z" transform="translate(-20.23 -22.6)"/><path d="M63.53,53.74a1.13,1.13,0,0,1-1.16-1.07,1.15,1.15,0,0,1,1.15-1.17,1.12,1.12,0,1,1,0,2.24Z" transform="translate(-20.23 -22.6)"/><path d="M68.46,46.29a1.21,1.21,0,0,1-1.16-1.21,1.15,1.15,0,0,1,1.13-1,1.11,1.11,0,0,1,1.2,1.12A1.29,1.29,0,0,1,68.46,46.29Z" transform="translate(-20.23 -22.6)"/><path d="M74.64,61.75a4.45,4.45,0,0,1-.14.49,20.15,20.15,0,0,1-7.08,9,1.3,1.3,0,0,1-1.24.32,1.15,1.15,0,0,1-.81-1A1.2,1.2,0,0,1,66,69.43a17,17,0,0,0,4.56-4.61,19.85,19.85,0,0,0,1.75-3.24,2.29,2.29,0,0,1,.39-.7A1.07,1.07,0,0,1,74,60.6,1.11,1.11,0,0,1,74.64,61.75Z" transform="translate(-20.23 -22.6)"/></svg>