<svg id="Layer_1" data-name="Layer 1" xmlns="http://www.w3.org/2000/svg" viewBox="0 0 62.48 46.41"><path d="M24,48.2a21.37,21.37,0,0,1,1.49-6.07,19.81,19.81,0,0,1,5.31-7.5A22.93,22.93,0,0,1,39.14,30a29.93,29.93,0,0,1,6.42-1.34c2-.16,3.94-.4,5.91-.38A38.25,38.25,0,0,1,63.38,30.1a24.68,24.68,0,0,1,8.05,4.5,21.69,21.69,0,0,1,6.83,10.49c.29.94.43,1.92.67,2.88a1.07,1.07,0,0,0,.36.66,6.38,6.38,0,0,1,3,4.2A6.69,6.69,0,0,1,82,58.27a5.17,5.17,0,0,0-.61,3,6.67,6.67,0,0,1-1.07,4c-.66,1-1.12,2.14-1.85,3.09a6.82,6.82,0,0,1-2.09,1.76,31.16,31.16,0,0,1-8.36,3c-2.11.46-4.26.78-6.41,1.08a41.18,41.18,0,0,1-4.43.4c-2.84.1-5.69.19-8.54.13a60.5,60.5,0,0,1-6.15-.53c-2.3-.29-4.61-.62-6.88-1.09a40.17,40.17,0,0,1-8.15-2.56,5.38,5.38,0,0,1-3.25-3.6c-.13-.49-.68-.86-1-1.29a7.7,7.7,0,0,1-1.63-4.41c0-.56,0-1.13,0-1.69a1.62,1.62,0,0,0-.16-.69c-1.72-3-1.31-5.94.6-8.7A14.05,14.05,0,0,1,24,48.2Zm32.77,5,5.09-.53c1.32-.14,2.65-.21,4-.43,1.94-.34,3.88-.73,5.78-1.22a33.09,33.09,0,0,0,3.68-1.34c.31-.11.66-.26.58-.74a21.54,21.54,0,0,0-1.73-5.64,19.17,19.17,0,0,0-4.48-6A20.38,20.38,0,0,0,63,33.43a27.33,27.33,0,0,0-8.79-1.75A43.12,43.12,0,0,0,45.1,32a28.07,28.07,0,0,0-8.84,2.84,17.86,17.86,0,0,0-6,5.27,18.12,18.12,0,0,0-3,7.34c-.27,1.34-.27,1.46.77,1.88a37.25,37.25,0,0,0,5.54,2c2.64.62,5.35,1,8,1.38,2.13.28,4.28.46,6.43.53C51.19,53.3,54.26,53.24,56.74,53.24ZM57.42,65c-1.23,2.74-3.23,4.46-6.11,4.41s-4.78-2-5.84-4.72c-1.32,2.71-3.38,4.23-6.32,4.07s-4.65-2.17-5.67-4.82a7.15,7.15,0,0,1-5.77,3,6.9,6.9,0,0,0,1,.62,45,45,0,0,0,8.55,2.56c1.86.33,3.74.6,5.61.82a55.33,55.33,0,0,0,6,.51A70.75,70.75,0,0,0,59,71.21c1.9-.26,3.84-.31,5.7-.72,2.59-.58,5.14-1.36,7.68-2.14a23.42,23.42,0,0,0,2.84-1.3l0-.18c-2.54.22-4.35-1.07-5.91-2.91C66.9,69.56,59.93,70.41,57.42,65ZM51,61.23c-2.5-1.39-4.79-2.71-7.13-4a8.67,8.67,0,0,0-3.34-1.36,54.89,54.89,0,0,1-5.95-1c-3.12-.65-6.22-1.4-8.92-3.21-.32-.22-.53-.15-.8.12a4.54,4.54,0,0,0-1.22,4,2.6,2.6,0,0,0,2.1,2.32c1.91.43,3.79,1,5.69,1.46,1.34.32,2.68.59,4,.82.89.15,1.8.19,2.7.27,1.82.18,3.64.41,5.47.52,1.49.09,3,0,4.47,0C49,61.24,49.86,61.23,51,61.23Zm-3.88-4.65.26.17L52,59.36c2.4,1.34,4.8,2.67,7.19,4a.66.66,0,0,0,.88-.14c.76-.7,1.52-1.38,2.3-2,2.39-2.05,4.78-4.08,7.17-6.12A121.78,121.78,0,0,1,47.07,56.58Zm19.6,3.84.08.2c.82-.16,1.65-.3,2.47-.5,2.85-.72,5.71-1.44,8.56-2.21a2,2,0,0,0,1.11-.73A4.76,4.76,0,0,0,78.35,52c-.08-.11-.43-.12-.58,0-.45.23-.85.53-1.28.79a21.93,21.93,0,0,0-2.74,1.62c-2,1.58-3.85,3.27-5.76,4.92C67.54,59.63,67.11,60,66.67,60.42ZM55.52,63.79c-.18-.1-.33-.26-.48-.27H47.49a4.47,4.47,0,0,0,3.38,3.64C53,67.4,54.67,66.27,55.52,63.79ZM35.45,62.73c.6,2.66,2.46,3.88,3.86,3.86a4.13,4.13,0,0,0,4.2-3.05Zm42.63-2.24L71,62.35c.16,1,2.36,2.67,4,2.36C76.87,64.36,78.54,63.33,78.08,60.49Zm-53.41,0c.25,2.85,1.56,4.24,3.23,4.21s3.82-1.38,4-2.56Zm35.86,5.17c2.41,2.08,6.4-.2,6.72-2.94-1.2.12-2.4.22-3.6.36a1,1,0,0,0-.49.29C62.29,64.14,61.43,64.9,60.53,65.69Z" transform="translate(-20.26 -28.29)"/><path d="M53.79,43.25c.94,0,1.26.55,1.34,1.29,0,.47-.75,1.13-1.29,1.14a1.42,1.42,0,0,1-1.26-1.28A1.26,1.26,0,0,1,53.79,43.25Z" transform="translate(-20.26 -28.29)"/><path d="M63.56,44.33c.89,0,1.21.53,1.29,1.27.06.5-.77,1.17-1.34,1.16a1.45,1.45,0,0,1-1.2-1.26A1.24,1.24,0,0,1,63.56,44.33Z" transform="translate(-20.26 -28.29)"/><path d="M59.19,39.2A1.17,1.17,0,0,1,58,38a1.22,1.22,0,0,1,2.44,0C60.41,38.81,60,39.2,59.19,39.2Z" transform="translate(-20.26 -28.29)"/><path d="M47.72,44.41a1.26,1.26,0,0,1-1.23,1.27,1.21,1.21,0,0,1-1.19-1.29,1.06,1.06,0,0,1,1.14-1.14A1.13,1.13,0,0,1,47.72,44.41Z" transform="translate(-20.26 -28.29)"/><path d="M49.86,38a1.14,1.14,0,0,1-1.19-1.17,1.17,1.17,0,0,1,1.17-1.27,1.26,1.26,0,0,1,1.26,1.18A1.24,1.24,0,0,1,49.86,38Z" transform="translate(-20.26 -28.29)"/><path d="M33.67,44.33a1.13,1.13,0,0,1,1.22,1.16,1.28,1.28,0,0,1-1.32,1.27,1.26,1.26,0,0,1-1.11-1.33A1.06,1.06,0,0,1,33.67,44.33Z" transform="translate(-20.26 -28.29)"/><path d="M39.92,38.12a1,1,0,0,1,1.18,1.11,1.28,1.28,0,0,1-1.2,1.32,1.34,1.34,0,0,1-1.23-1.31C38.68,38.5,39.11,38.12,39.92,38.12Z" transform="translate(-20.26 -28.29)"/><path d="M68.2,43.25A1.09,1.09,0,0,1,67,42.11c0-.75.45-1.16,1.3-1.15s1.14.37,1.14,1.06C69.46,42.88,69.07,43.25,68.2,43.25Z" transform="translate(-20.26 -28.29)"/></svg>