<svg id="Layer_1" data-name="Layer 1" xmlns="http://www.w3.org/2000/svg" viewBox="0 0 59.7 57.8"><defs><style>.cls-1{fill:#010101;}</style></defs><path d="M41.3,58.9c-1.36-.17-2.73-.3-4.09-.51a28.86,28.86,0,0,1-7.46-2.33,47.13,47.13,0,0,1-7.54-4.29c-1.36-1-2.68-2-4-3s-2.43-2.09-3.6-3.2c-1-1-2-2-3-3A43.81,43.81,0,0,1,7.25,37c-1-1.52-1.94-3.1-2.87-4.68A33.43,33.43,0,0,1,1.86,26.7,32.6,32.6,0,0,1,.4,21.28a18.79,18.79,0,0,1-.2-4.49,14.6,14.6,0,0,1,1.7-6,10.84,10.84,0,0,1,5-4.9A8.92,8.92,0,0,1,9.83,5c1-.09,2-.2,3-.22a3.66,3.66,0,0,1,3,1.54,19.8,19.8,0,0,1,3,6.35c.57,1.62,1.2,3.21,1.8,4.82a7.23,7.23,0,0,1,.59,3,4.85,4.85,0,0,1-1,2.51,12.35,12.35,0,0,1-3.78,3.63,2.78,2.78,0,0,0-.73.68,1,1,0,0,0,0,1.35c.8,1.1,1.55,2.24,2.43,3.26,1.18,1.38,2.44,2.69,3.72,4,1.13,1.13,2.34,2.17,3.52,3.24s2.12,1.89,3.21,2.8c.61.5,1.27.93,1.91,1.38a.57.57,0,0,0,.82-.1c1.48-1.48,2.95-3,4.49-4.4a4.09,4.09,0,0,1,3.57-1.07,15.91,15.91,0,0,1,3.09,1.07l7.23,2.83c.84.32,1.67.67,2.51,1A3,3,0,0,1,54,44.83a7.62,7.62,0,0,1,.22,2.81,12.69,12.69,0,0,1-1.09,4.14,13.29,13.29,0,0,1-1.94,3.16,10.28,10.28,0,0,1-4,2.88,14.26,14.26,0,0,1-3.63.88c-.75.09-1.51.08-2.27.11Z" transform="translate(-0.15 -1.1)"/><path class="cls-1" d="M30,1.1l4.17.49a22.41,22.41,0,0,1,4.5,1c1.14.37,2.25.83,3.35,1.31a26.27,26.27,0,0,1,6.24,3.82c1.18.95,2.27,2,3.36,3.1a25.85,25.85,0,0,1,3.47,4.4,30.42,30.42,0,0,1,3,6.17,31.6,31.6,0,0,1,1.31,4.9c.16.87.22,1.75.31,2.64.06.51.14,1,.15,1.55A1.6,1.6,0,0,1,58.47,32a1.63,1.63,0,0,1-1.72-1.77,22.7,22.7,0,0,0-.45-3.77,26.37,26.37,0,0,0-1.91-6.1A23.72,23.72,0,0,0,51.15,15c-1-1.24-2.12-2.44-3.27-3.58a22.2,22.2,0,0,0-4.37-3.28,24.2,24.2,0,0,0-6-2.69,38.45,38.45,0,0,0-4.22-1c-1.26-.19-2.55-.18-3.83-.26a1.59,1.59,0,0,1-1.74-1.49A1.47,1.47,0,0,1,29,1.2c.32,0,.65,0,1,0Z" transform="translate(-0.15 -1.1)"/><path class="cls-1" d="M29.43,9c1.45.21,2.91.37,4.34.66a19.41,19.41,0,0,1,4.89,1.74A22.81,22.81,0,0,1,48.4,20.7a21.4,21.4,0,0,1,2.18,5.5c.24.95.35,1.93.5,2.9a9.77,9.77,0,0,1,.15,1.43A1.48,1.48,0,0,1,49.66,32a1.55,1.55,0,0,1-1.47-1.5,19.51,19.51,0,0,0-.85-4.67,18.22,18.22,0,0,0-3.17-6.08,28.65,28.65,0,0,0-2.81-2.92,16.16,16.16,0,0,0-5-3.13,23,23,0,0,0-3.84-1.17c-1.13-.25-2.32-.25-3.47-.42a1.53,1.53,0,0,1-1.38-1.59,1.44,1.44,0,0,1,1.51-1.43h.19Z" transform="translate(-0.15 -1.1)"/><path class="cls-1" d="M29.25,16.87c.95.26,1.92.47,2.85.77a13.71,13.71,0,0,1,4.51,2.54,14.6,14.6,0,0,1,4.46,6.15A15.66,15.66,0,0,1,42,30.25a1.57,1.57,0,0,1-1.36,1.8,1.47,1.47,0,0,1-1.39-.74,3.56,3.56,0,0,1-.31-1.16,16.24,16.24,0,0,0-.65-2.58,11.08,11.08,0,0,0-2.59-4.11,11.59,11.59,0,0,0-5-3.08,14.16,14.16,0,0,0-1.79-.44,1.49,1.49,0,0,1-1.15-1,1.32,1.32,0,0,1,.3-1.42A1.12,1.12,0,0,1,29.23,17Z" transform="translate(-0.15 -1.1)"/></svg>