<svg id="Layer_1" data-name="Layer 1" xmlns="http://www.w3.org/2000/svg" viewBox="0 0 33.89 33.83"><defs><style>.cls-1{fill:#25e521;}</style></defs><path class="cls-1" d="M3.06,13.82a4.32,4.32,0,0,1,1.52-3.55c.66-.59,1.29-1.22,2-1.77a3.59,3.59,0,0,1,4.22.05,11.4,11.4,0,0,1,2.76,3.23,4.61,4.61,0,0,1,.73,3.06,3.35,3.35,0,0,1-.82,1.69c-.32.39-.67.75-1,1.11-.54.56-.55.51-.18,1.25a13,13,0,0,0,1.44,2.22,29,29,0,0,0,2.48,2.72C17.33,24.93,18.56,26,19.8,27a7.54,7.54,0,0,0,1.57.88.76.76,0,0,0,.91-.15,12.35,12.35,0,0,1,1.86-1.61,3.46,3.46,0,0,1,3.48,0,11,11,0,0,1,3.6,2.66,3.91,3.91,0,0,1,1,2.19,3.57,3.57,0,0,1-.91,2.8A26,26,0,0,1,29.17,36a3.33,3.33,0,0,1-1.91.81,10.46,10.46,0,0,1-5.41-.91,27.89,27.89,0,0,1-7-4.1,36,36,0,0,1-4.79-4.44A46.43,46.43,0,0,1,6.7,23.1a20.74,20.74,0,0,1-3-6.12c-.15-.51-.28-1-.38-1.57S3.13,14.35,3.06,13.82Z" transform="translate(-3.05 -3.09)"/><path class="cls-1" d="M17.77,5.29V3.14A17.37,17.37,0,0,1,30.2,6.83a17.34,17.34,0,0,1,6.7,15.48H35c-.24,0-.27-.14-.26-.33,0-.84,0-1.67,0-2.5a15.88,15.88,0,0,0-.23-1.82A14.26,14.26,0,0,0,32.74,13a14.64,14.64,0,0,0-3-3.72,15.51,15.51,0,0,0-4.93-3,12.83,12.83,0,0,0-3.71-.85c-1-.06-2.05-.06-3.07-.09Z" transform="translate(-3.05 -3.09)"/><path class="cls-1" d="M17.92,9.46c-.05-.71-.1-1.34-.11-2,0-.08.16-.23.25-.24a15.3,15.3,0,0,1,5.17.55,13.78,13.78,0,0,1,4.92,2.73,13,13,0,0,1,4.25,6.86,14.55,14.55,0,0,1,.36,4.78H30.6A11.4,11.4,0,0,0,17.92,9.46Z" transform="translate(-3.05 -3.09)"/><path class="cls-1" d="M18,13.64V11.49A9.29,9.29,0,0,1,28.56,22.05H26.41a7.17,7.17,0,0,0-2-6.36A7.27,7.27,0,0,0,18,13.64Z" transform="translate(-3.05 -3.09)"/></svg>