<svg id="Layer_1" data-name="Layer 1" xmlns="http://www.w3.org/2000/svg" viewBox="0 0 32.03 32.05"><defs><style>.cls-1{fill:#25e521;}</style></defs><path class="cls-1" d="M32.45,18l-.06.38c0,.11,0,.22,0,.33s-.06.38-.09.57,0,.4-.1.6-.12.5-.18.75-.14.5-.22.74-.16.51-.26.75-.19.51-.3.76-.27.55-.41.82-.13.3-.21.44a17,17,0,0,1-1.3,2,17.48,17.48,0,0,1-1.56,1.77,16.15,16.15,0,0,1-2.56,2c-.28.18-.56.34-.84.5s-.44.24-.67.35a13.21,13.21,0,0,1-1.63.72l-.75.24-1.1.31c-.19,0-.4.08-.6.12l-.49.09c-.13,0-.26,0-.4.06l-.27,0-.25,0-.27,0-.34,0h-.36l-.57,0h-.21l-.59,0h-.36l-.29,0H15l-.23,0a4.26,4.26,0,0,1-.5-.06l-.82-.13c-.18,0-.35-.08-.52-.12l-.64-.16-.46-.13c-.33-.11-.65-.21-1-.33s-.55-.22-.81-.34-.79-.35-1.17-.56S8,30,7.5,29.72a15.1,15.1,0,0,1-1.78-1.41,16.22,16.22,0,0,1-2.66-3.13c-.17-.25-.32-.51-.47-.77s-.34-.61-.49-.92-.24-.52-.35-.78-.24-.57-.34-.86-.22-.65-.31-1-.2-.74-.29-1.12a5.55,5.55,0,0,1-.13-.71,5.82,5.82,0,0,1-.09-.73c0-.22,0-.43-.06-.65v0l0-.28v-.49h0s0,0,0,0v-.7l0-.46v-.05l0-.53v-.41a1.19,1.19,0,0,1,.06-.46,2.58,2.58,0,0,0,0-.29c0-.19.06-.39.1-.59s.08-.34.12-.5l.18-.69c0-.19.1-.38.16-.56s.06-.16.08-.24l.41-1.1c.06-.15.15-.3.22-.46s.16-.37.25-.54.27-.49.41-.73S2.83,8.1,3,7.9c.32-.46.65-.92,1-1.37A14.5,14.5,0,0,1,5.19,5.15,16.36,16.36,0,0,1,8.47,2.63c.36-.21.74-.4,1.11-.59a14.17,14.17,0,0,1,1.34-.57l.77-.26c.39-.12.78-.24,1.17-.34s.5-.11.75-.15l.75-.1.39-.06h.18l.22,0h0l.28,0h2.15l.28,0h0l.22,0h.15l.22,0h0l.1,0,.77.12.7.13.39.1.19.05c.25.06.49.13.73.21l.88.29c.19.07.38.16.57.25.37.17.74.33,1.1.51a15.85,15.85,0,0,1,3,2c.44.38.86.77,1.26,1.19A16.32,16.32,0,0,1,30.2,8.18c.16.27.31.56.46.84.06.11.13.22.19.34s.25.52.37.79.26.64.37,1,.19.57.27.85.13.43.19.65.08.37.12.56.09.39.12.6,0,.33.06.5l.06.36v0l0,.14V15l0,.48,0,0v.34s0,0,0,0a0,0,0,0,0,0,0v1.16l0,.65V18ZM17.77,3.76l-.25,0h0l-.28,0h-.43a1.81,1.81,0,0,0-.23,0l-.39,0h-.42l-.25,0h0l-.28,0-.31,0-.28,0c-.15,0-.31,0-.46.06s-.48.09-.72.15-.72.21-1.08.33-.58.22-.87.33A4.6,4.6,0,0,0,11,5q-.54.27-1.05.57A12.8,12.8,0,0,0,7.07,7.86,14.07,14.07,0,0,0,5.68,9.65a9,9,0,0,0-.48.86c-.14.27-.28.55-.41.83s-.23.55-.34.83-.12.39-.18.58-.16.53-.23.8-.11.49-.15.73a5.17,5.17,0,0,0-.07.55V15s0,0,0,.06c0,.18,0,.35,0,.52v1.73h0a0,0,0,0,0,0,0l0,.4v.18h0s0,0,0,0v.15c0,.08,0,.17,0,.25s.07.35.1.52.09.48.15.71a12.66,12.66,0,0,0,.46,1.44,7.26,7.26,0,0,0,.38.86c.17.36.36.72.56,1.07s.39.62.6.92a13.2,13.2,0,0,0,1.75,2,13,13,0,0,0,1.87,1.42,11,11,0,0,0,1.51.82l.65.28.53.19a6.4,6.4,0,0,0,.85.26c.3.07.6.15.91.2a6.49,6.49,0,0,0,.77.11l.43.06h.13l.33,0,.56,0H17l.15,0h.06l.31,0h0l.23,0h.11l.25,0,.36-.06.48-.1c.2,0,.4-.06.59-.11.37-.1.74-.2,1.09-.33s.75-.27,1.12-.43a9.34,9.34,0,0,0,1.55-.85c.23-.16.48-.3.7-.46a12.16,12.16,0,0,0,2-1.76,10.85,10.85,0,0,0,1-1.24,7.34,7.34,0,0,0,.6-1c.15-.29.32-.57.47-.86s.21-.47.31-.7.16-.37.22-.56c.11-.34.21-.67.31-1s.11-.46.16-.69.06-.4.09-.6.08-.55.13-.82h0v-.24c0-.35,0-.7,0-1.05s0-.49,0-.73v-.07c-.06-.43-.11-.87-.17-1.3,0-.23-.08-.45-.13-.68-.13-.5-.27-1-.45-1.48-.09-.26-.2-.51-.32-.77s-.21-.47-.33-.7-.27-.5-.41-.74-.2-.29-.3-.44-.29-.45-.45-.67a13.21,13.21,0,0,0-4.44-3.7l-.33-.14c-.26-.12-.52-.25-.78-.35s-.54-.19-.81-.27-.48-.14-.72-.2L19,4l-.65-.11a.54.54,0,0,0-.31-.06H18Z" transform="translate(-0.48 -0.47)"/><path class="cls-1" d="M17.27.5H15.73v0h1.52Z" transform="translate(-0.48 -0.47)"/><path class="cls-1" d="M16.41,32.49h.77v0l-.1,0H15.93l-.11,0v0Z" transform="translate(-0.48 -0.47)"/><path class="cls-1" d="M15.45,32.46h.37v0l-.24,0Z" transform="translate(-0.48 -0.47)"/><path class="cls-1" d="M17.19,32.47h.36l-.19,0-.18,0v0Z" transform="translate(-0.48 -0.47)"/><path class="cls-1" d="M17.55,32.46l.34,0Z" transform="translate(-0.48 -0.47)"/><path class="cls-1" d="M17.86.53l-.28,0Z" transform="translate(-0.48 -0.47)"/><path class="cls-1" d="M15.43.5l-.28,0Z" transform="translate(-0.48 -0.47)"/><path class="cls-1" d="M15.17,32.44l.29,0Z" transform="translate(-0.48 -0.47)"/><path class="cls-1" d="M15.74.47v0h-.25Z" transform="translate(-0.48 -0.47)"/><path class="cls-1" d="M17.27.5v0l.26,0Z" transform="translate(-0.48 -0.47)"/><path class="cls-1" d="M14.77,32.41l.23,0Z" transform="translate(-0.48 -0.47)"/><path class="cls-1" d="M18.45.59l-.22,0Z" transform="translate(-0.48 -0.47)"/><path class="cls-1" d="M18.08.56l-.22,0h.21Z" transform="translate(-0.48 -0.47)"/><path class="cls-1" d="M15.15.53l-.22,0v0Z" transform="translate(-0.48 -0.47)"/><path class="cls-1" d="M14.94.53v0h-.18Z" transform="translate(-0.48 -0.47)"/><path class="cls-1" d="M18.08.56v0l.16,0Z" transform="translate(-0.48 -0.47)"/><path class="cls-1" d="M18.57.62l-.1,0Z" transform="translate(-0.48 -0.47)"/><path class="cls-1" d="M.5,17.32v0Z" transform="translate(-0.48 -0.47)"/><path class="cls-1" d="M.49,16.83s0,0,0,0h0Z" transform="translate(-0.48 -0.47)"/><path class="cls-1" d="M.49,16.13v0Z" transform="translate(-0.48 -0.47)"/><path class="cls-1" d="M32.45,18v0Z" transform="translate(-0.48 -0.47)"/><path class="cls-1" d="M32.52,15.92a0,0,0,0,1,0,0s0,0,0,0Z" transform="translate(-0.48 -0.47)"/><path class="cls-1" d="M.52,15.62v0Z" transform="translate(-0.48 -0.47)"/><path class="cls-1" d="M32.47,17.76v0Z" transform="translate(-0.48 -0.47)"/><path class="cls-1" d="M32.5,15.54l0,0Z" transform="translate(-0.48 -0.47)"/><path class="cls-1" d="M.53,17.64v0Z" transform="translate(-0.48 -0.47)"/><path class="cls-1" d="M.55,15.05v0Z" transform="translate(-0.48 -0.47)"/><path class="cls-1" d="M32.46,15v0Z" transform="translate(-0.48 -0.47)"/><path class="cls-1" d="M.57,14.86v0Z" transform="translate(-0.48 -0.47)"/><path class="cls-1" d="M32.44,14.84v0s0,0,0,0Z" transform="translate(-0.48 -0.47)"/><path class="cls-1" d="M.59,14.68v0Z" transform="translate(-0.48 -0.47)"/><path class="cls-1" d="M32.42,14.66v0Z" transform="translate(-0.48 -0.47)"/><path class="cls-1" d="M32.51,17.08v0Z" transform="translate(-0.48 -0.47)"/><path class="cls-1" d="M16.81,3.7h-.62l.39,0A1.81,1.81,0,0,1,16.81,3.7Z" transform="translate(-0.48 -0.47)"/><path class="cls-1" d="M15.83,32.49v0l.59,0Z" transform="translate(-0.48 -0.47)"/><path class="cls-1" d="M16.35,29.26h0v0l-.56,0h.53Z" transform="translate(-0.48 -0.47)"/><path class="cls-1" d="M17.19,32.47v0h-.56Z" transform="translate(-0.48 -0.47)"/><path class="cls-1" d="M16.6,29.27h.55l-.15,0h-.41Z" transform="translate(-0.48 -0.47)"/><path class="cls-1" d="M14.93,29.17l.43,0v0Z" transform="translate(-0.48 -0.47)"/><path class="cls-1" d="M16.19,3.7a1.25,1.25,0,0,1-.43,0,0,0,0,0,1,0,0Z" transform="translate(-0.48 -0.47)"/><path class="cls-1" d="M17.25,3.72a1.08,1.08,0,0,1-.44,0h.43Z" transform="translate(-0.48 -0.47)"/><path class="cls-1" d="M17.15,29.27h-.37l.44,0v0Z" transform="translate(-0.48 -0.47)"/><path class="cls-1" d="M18.38,3.85l-.31-.06A.54.54,0,0,1,18.38,3.85Z" transform="translate(-0.48 -0.47)"/><path class="cls-1" d="M14.93,3.79l-.28,0Z" transform="translate(-0.48 -0.47)"/><path class="cls-1" d="M15.49,29.23h.32s0,0,0,0h0Z" transform="translate(-0.48 -0.47)"/><path class="cls-1" d="M17.21,29.26v0h.3Z" transform="translate(-0.48 -0.47)"/><path class="cls-1" d="M15.52,3.73l-.28,0Z" transform="translate(-0.48 -0.47)"/><path class="cls-1" d="M17.25,3.72v0l.28,0Z" transform="translate(-0.48 -0.47)"/><path class="cls-1" d="M17.85,29.2l.25,0Z" transform="translate(-0.48 -0.47)"/><path class="cls-1" d="M17.73,3.77l-.21,0,.25,0Z" transform="translate(-0.48 -0.47)"/><path class="cls-1" d="M15.77,3.7a0,0,0,0,0,0,0h-.24Z" transform="translate(-0.48 -0.47)"/><path class="cls-1" d="M16.6,29.27v0h-.21v0Z" transform="translate(-0.48 -0.47)"/><path class="cls-1" d="M17.51,29.23l.23,0Z" transform="translate(-0.48 -0.47)"/><path class="cls-1" d="M17.73,3.77h0l.18,0Z" transform="translate(-0.48 -0.47)"/><path class="cls-1" d="M15.36,29.23v0l.13,0Z" transform="translate(-0.48 -0.47)"/><path class="cls-1" d="M29.27,15.61v0Z" transform="translate(-0.48 -0.47)"/><path class="cls-1" d="M3.81,18.09v0Z" transform="translate(-0.48 -0.47)"/><path class="cls-1" d="M3.79,17.94v0s0,0,0,0Z" transform="translate(-0.48 -0.47)"/><path class="cls-1" d="M3.72,16v0Z" transform="translate(-0.48 -0.47)"/><path class="cls-1" d="M3.78,17.76v0Z" transform="translate(-0.48 -0.47)"/><path class="cls-1" d="M3.74,15.6v0Z" transform="translate(-0.48 -0.47)"/><path class="cls-1" d="M3.8,15v0Z" transform="translate(-0.48 -0.47)"/><path class="cls-1" d="M3.82,14.83v0Z" transform="translate(-0.48 -0.47)"/><path class="cls-1" d="M29.25,17.64v0Z" transform="translate(-0.48 -0.47)"/><path class="cls-1" d="M29.26,17.42v0Z" transform="translate(-0.48 -0.47)"/><path class="cls-1" d="M3.73,17.33s0,0,0,0h0a0,0,0,0,1,0,0Z" transform="translate(-0.48 -0.47)"/><path class="cls-1" d="M16.28,9.57l-.51.07a6.28,6.28,0,0,0-.85.23,6.42,6.42,0,0,0-.85.37,6.75,6.75,0,0,0-2.74,2.66,4.71,4.71,0,0,0-.33.63c-.11.24-.21.48-.3.73s-.15.54-.22.81a4.76,4.76,0,0,0-.08.66v0c0,.37,0,.73,0,1.1,0,.05,0,.1,0,.15v0a8.62,8.62,0,0,0,.11.87,8.11,8.11,0,0,0,.24.88,8.67,8.67,0,0,0,.36.83A6.66,6.66,0,0,0,12,21.09a7,7,0,0,0,1.5,1.33c.23.14.46.26.69.38a6.69,6.69,0,0,0,1,.39c.28.09.57.12.85.2h.23l.25,0,.3,0,.41,0,.31,0c.14,0,.28,0,.42-.06l.55-.13A3.47,3.47,0,0,0,19.1,23,5.37,5.37,0,0,0,20,22.6a6.56,6.56,0,0,0,2.2-2l.07-.1,2.3,1.71a1.7,1.7,0,0,1-.1.14A9.61,9.61,0,0,1,22,24.65a6.94,6.94,0,0,1-1,.52c-.26.12-.52.24-.78.34a4.53,4.53,0,0,1-1,.31L18.6,26c-.18,0-.35.05-.53.08h-.18l-.19,0h0l-.46,0h-.58l-.44,0s0,0,0,0a.22.22,0,0,0-.22,0,2.48,2.48,0,0,1-.27,0c-.21-.05-.43,0-.64-.11s-.45-.1-.67-.16a4.65,4.65,0,0,1-.63-.21c-.16-.07-.32-.12-.48-.18l-.42-.2c-.21-.11-.41-.21-.61-.33A9.52,9.52,0,0,1,8.65,21.2c-.11-.19-.21-.37-.31-.57s-.19-.43-.27-.65-.21-.54-.3-.82-.11-.46-.16-.69,0-.26-.07-.38,0-.24,0-.36,0-.31,0-.46v0l0-.27v0l0-1.19v0l0-.18v0a4.5,4.5,0,0,1,.15-1c.07-.27.12-.54.2-.8a9.79,9.79,0,0,1,.52-1.3c.13-.26.25-.53.4-.77a11.47,11.47,0,0,1,.9-1.26,9.9,9.9,0,0,1,2.4-2.07l.54-.3a8.93,8.93,0,0,1,1.46-.63A5.82,5.82,0,0,1,15.23,7a3.84,3.84,0,0,1,.68-.09l.28,0H17.7l.22,0h.18l.34,0a6.43,6.43,0,0,1,.95.2c.12,0,.26,0,.38.09a9.34,9.34,0,0,1,1.5.63c.24.13.47.29.72.42a7.38,7.38,0,0,1,1.24.92,9,9,0,0,1,1.35,1.48,0,0,0,0,1,0,0c-.16.17-2.2,1.68-2.3,1.7A6.42,6.42,0,0,0,17.8,9.61l-.22,0h0l-.22,0H16.5Z" transform="translate(-0.48 -0.47)"/><path class="cls-1" d="M16.5,9.55h.86v0h-.88Z" transform="translate(-0.48 -0.47)"/><path class="cls-1" d="M17.37,6.89h-.85v0h.83Z" transform="translate(-0.48 -0.47)"/><path class="cls-1" d="M17.27,23.43l-.41,0-.3,0v0h.71Z" transform="translate(-0.48 -0.47)"/><path class="cls-1" d="M16.65,26.1h.59l-.1,0h-.39Z" transform="translate(-0.48 -0.47)"/><path class="cls-1" d="M17.24,26.09l.46,0Z" transform="translate(-0.48 -0.47)"/><path class="cls-1" d="M16.22,26.07l.44,0Z" transform="translate(-0.48 -0.47)"/><path class="cls-1" d="M16.53,6.87v0h-.33Z" transform="translate(-0.48 -0.47)"/><path class="cls-1" d="M15.83,29.26s0,0,0,0l.35,0Z" transform="translate(-0.48 -0.47)"/><path class="cls-1" d="M17.37,6.89v0l.32,0Z" transform="translate(-0.48 -0.47)"/><path class="cls-1" d="M17.58,23.39l-.31,0v0Z" transform="translate(-0.48 -0.47)"/><path class="cls-1" d="M16.19,6.9l-.28,0Z" transform="translate(-0.48 -0.47)"/><path class="cls-1" d="M16.56,23.43l-.25,0h.25v0Z" transform="translate(-0.48 -0.47)"/><path class="cls-1" d="M17.58,9.58l.22,0Z" transform="translate(-0.48 -0.47)"/><path class="cls-1" d="M17.37,9.57v0l.22,0Z" transform="translate(-0.48 -0.47)"/><path class="cls-1" d="M16.5,9.55v0h-.21Z" transform="translate(-0.48 -0.47)"/><path class="cls-1" d="M17.92,6.93l-.22,0h.21Z" transform="translate(-0.48 -0.47)"/><path class="cls-1" d="M16,26.06a.22.22,0,0,1,.22,0Z" transform="translate(-0.48 -0.47)"/><path class="cls-1" d="M17.92,6.93v0c.07,0,.14,0,.19,0Z" transform="translate(-0.48 -0.47)"/><path class="cls-1" d="M17.89,26h.18l-.19,0Z" transform="translate(-0.48 -0.47)"/><path class="cls-1" d="M17.89,26v0H17.7Z" transform="translate(-0.48 -0.47)"/><path class="cls-1" d="M16.56,23.41v0l.1,0Z" transform="translate(-0.48 -0.47)"/><path class="cls-1" d="M16.35,29.26h0Z" transform="translate(-0.48 -0.47)"/><path class="cls-1" d="M17.28,23.39v0h-.06Z" transform="translate(-0.48 -0.47)"/><path class="cls-1" d="M7.45,17.23v0Z" transform="translate(-0.48 -0.47)"/><path class="cls-1" d="M10.38,17.05v0Z" transform="translate(-0.48 -0.47)"/><path class="cls-1" d="M7.43,16.92v0s0,0,0,0Z" transform="translate(-0.48 -0.47)"/><path class="cls-1" d="M10.39,15.77v0Z" transform="translate(-0.48 -0.47)"/><path class="cls-1" d="M7.45,15.7v0Z" transform="translate(-0.48 -0.47)"/><path class="cls-1" d="M7.48,15.48v0Z" transform="translate(-0.48 -0.47)"/></svg>