<svg id="Layer_1" data-name="Layer 1" xmlns="http://www.w3.org/2000/svg" viewBox="0 0 82.97 45.95"><path d="M31.49,71.64c-.2-.07-.41-.13-.61-.21l-.59-.22a27.47,27.47,0,0,1-3.52-1.65,20.24,20.24,0,0,1-4.39-3.2A12.15,12.15,0,0,1,20,63.13a1.37,1.37,0,0,0-.84-.72,28,28,0,0,1-3.75-1.7A18.49,18.49,0,0,1,12.74,59,9.3,9.3,0,0,1,11,57.06a3.88,3.88,0,0,1-.28-.58s0-.11-.07-.12c-.25-.08-.25-.31-.3-.5a10.3,10.3,0,0,1-.25-1.1,3.2,3.2,0,0,1,.08-1.68c.08-.21.11-.44.17-.65a1.55,1.55,0,0,1,.06-.23,7.83,7.83,0,0,1,1.82-2.41,12.67,12.67,0,0,1,1.51-1.23,20.89,20.89,0,0,1,2.39-1.35c1.16-.55,2.35-1,3.54-1.51.67-.26,1.37-.49,2.06-.69s1.57-.43,2.36-.65c.32-.08.63-.19,1-.27s.63-.13.94-.21l1.51-.38a.34.34,0,0,0,.15-.14,26.51,26.51,0,0,1,5.1-6.17,18.44,18.44,0,0,1,3.89-2.71,7.16,7.16,0,0,0,.83-.42,1.62,1.62,0,0,0,.5-.51,9.57,9.57,0,0,1,3.49-3.68A5.26,5.26,0,0,1,43,29.13c.36-.09.71-.26,1.07-.37a2.42,2.42,0,0,1,.47-.06l.89-.17c.92,0,1.84,0,2.76.09a12.22,12.22,0,0,1,1.79.32,9.87,9.87,0,0,1,3.78,1.77,1.58,1.58,0,0,0,.72.24c.47.08.94.1,1.41.19a13.5,13.5,0,0,1,1.88.44,8.23,8.23,0,0,1,4.46,3.76.82.82,0,0,0,.66.39c.45.07.89.12,1.33.16a12.69,12.69,0,0,1,2.52.61A17.4,17.4,0,0,1,75,41.91a11.23,11.23,0,0,1,.9,1.16,1.92,1.92,0,0,0,1.65.92,5.81,5.81,0,0,1,1,.26c.88.23,1.77.46,2.65.71.43.12.86.27,1.29.42.78.28,1.57.54,2.34.86s1.81.82,2.69,1.3A25.88,25.88,0,0,1,90,49.1a7.75,7.75,0,0,1,2.61,3.09A4.72,4.72,0,0,1,93,54.67a5.82,5.82,0,0,1-1.81,3.5A14.45,14.45,0,0,1,87.07,61c-1,.49-2.08.91-3.11,1.37-.29.13-.66.21-.77.56A10.88,10.88,0,0,1,80,67.4a14.72,14.72,0,0,1-2.28,1.73,24.24,24.24,0,0,1-4,2c-1.14.44-2.29.85-3.46,1.21-.9.27-1.84.44-2.76.65l-1.11.27-1.4.22c-.44.07-.87.17-1.31.23s-.84.09-1.26.14c-.59.07-1.18.16-1.77.22s-1.16.12-1.74.15c-1,0-1.92,0-2.87.12-2.17.17-4.35.07-6.52.1-.59,0-1.19,0-1.78,0s-1.09,0-1.62-.06-.93-.11-1.39-.15c-.29,0-.58,0-.87-.07l-1.53-.2c-.43,0-.86-.07-1.29-.12s-.88-.12-1.32-.19-1.15-.18-1.73-.29-.88-.18-1.32-.28c-.92-.2-1.85-.4-2.76-.64-.53-.13-1-.33-1.55-.5a.34.34,0,0,0-.1,0Zm11.8-38.89.17-.06a.89.89,0,0,1,.2-.06c.42,0,.83.14,1.25.16a6.82,6.82,0,0,1,2.22.54,9.43,9.43,0,0,1,2.42,1.34,7,7,0,0,1,2.8,5.64c0,.23,0,.46,0,.68s-.09.54-.1.81a10.24,10.24,0,0,1-.36,2.26,22.72,22.72,0,0,1-1.06,3.24,32.2,32.2,0,0,1-2.43,4.75c-.35.58-.71,1.15-1.09,1.71s-.94,1.34-1.43,2a1.16,1.16,0,0,1-1.37.3,1.27,1.27,0,0,1-.64-1.95c.33-.49.7-1,1-1.47.7-1.12,1.42-2.23,2-3.39S48.11,47,48.65,45.8a3.94,3.94,0,0,0,.19-.82.94.94,0,0,0-.27,0l-1.08.2A5.85,5.85,0,0,0,45,46.39,13.77,13.77,0,0,0,41.15,52c-.27.64-.47,1.32-.71,2-.06.19-.2.37-.19.56s-.2.45-.4.58a1.63,1.63,0,0,1-.66.35,1.35,1.35,0,0,1-1.42-.88,1.21,1.21,0,0,1,0-.88c.27-.72.51-1.45.8-2.17a22.42,22.42,0,0,1,2.13-4.13,15.88,15.88,0,0,1,1.9-2.35,9.49,9.49,0,0,1,3.82-2.44A10,10,0,0,1,48,42.27a12.91,12.91,0,0,1,1.39,0h.06c.23-.08.26-.27.27-.48h0s0,0,0,0v-1.5c-.08-.41-.14-.82-.23-1.22,0-.2-.17-.39-.42-.38a5.22,5.22,0,0,0-1.19.07,17.31,17.31,0,0,0-2.72.72c-.61.29-1.26.48-1.88.75a14,14,0,0,0-3.09,1.94,18.36,18.36,0,0,0-3.73,4.18,24,24,0,0,0-2,3.76c-.15.34-.28.7-.41,1.06-.18.52-.34,1-.52,1.57A4.15,4.15,0,0,1,33,54.17a1.27,1.27,0,0,1-2.27-.75,9.1,9.1,0,0,1,.7-2.71c.19-.61.45-1.2.68-1.8a20.9,20.9,0,0,1,1.77-3.54,20,20,0,0,1,2.65-3.48,18.55,18.55,0,0,1,5.14-3.83,24,24,0,0,1,3.18-1.34,6.68,6.68,0,0,1,1.47-.34l.07,0,.47-.24-.48-.16-.73-.27a4.84,4.84,0,0,0-.82-.25c-.38-.05-.76,0-1.14-.06a8.5,8.5,0,0,0-3.25.35,16.44,16.44,0,0,0-4.28,2.12,21.21,21.21,0,0,0-3.68,3.34A25.51,25.51,0,0,0,28.17,48c-.34.77-.65,1.55-1,2.33-.17.42-.29.85-.44,1.28s-.27.86-.45,1.27c-.27.61-1.34.64-1.73.4a1.56,1.56,0,0,1-.67-1.06l.07-.57-.44.08c-.35.23-.7.47-1.06.69s-.27.39-.13.64a.83.83,0,0,0,.22.24,6.44,6.44,0,0,0,1.95,1c.7.24,1.4.46,2.11.67s1.36.39,2.05.56c.42.11.85.18,1.28.27s.72.16,1.08.22l1.92.3,2.16.28.84.1,1.82.23c.47.05.94.06,1.4.11s1.15.16,1.72.21c.79.07,1.58.12,2.37.16l2.42.11,2.8,0c1.06,0,2.12,0,3.17,0,.5,0,1,0,1.5,0l4.53-.09c1.07,0,2.13-.08,3.19-.12l2.28-.11c.3,0,.61,0,.9-.06l2.63-.31c.43-.05.87-.07,1.3-.11s.72-.12,1.09-.16c.54-.06,1.09-.08,1.63-.17,1.07-.18,2.13-.38,3.2-.58.75-.15,1.5-.3,2.24-.48s1.57-.42,2.36-.64c.49-.14,1-.29,1.47-.47a5.13,5.13,0,0,0,.86-.4c.41-.23.83-.46,1.22-.73.21-.15.24-.5.08-.6-.59-.37-1.18-.75-1.78-1.08-.39-.2-.6,0-.6.38V52A1.24,1.24,0,0,1,78,53.13a1.44,1.44,0,0,1-.83-.91c-.24-.81-.44-1.63-.74-2.42-.36-.95-.77-1.88-1.22-2.79a16.2,16.2,0,0,0-4.76-5.73,9.77,9.77,0,0,0-2.35-1.39c-.19-.07-.39-.08-.5-.28a.45.45,0,0,0-.2-.12c-.29-.09-.59-.17-.88-.27s-.27-.11-.41-.16c-.43-.12-.86-.26-1.3-.36s-.81-.12-1.21-.17a.28.28,0,0,0-.19.14,1.36,1.36,0,0,0,0,.45c.05.38.14.75.17,1.14s.07.48.43.57c.51.12,1,.22,1.53.32a7.13,7.13,0,0,1,2,.76,12.15,12.15,0,0,1,5.2,5.68c.22.46.39.95.58,1.44s.43,1.12.61,1.7c.13.42.21.86.32,1.29a2,2,0,0,1,.17,1.21,1.36,1.36,0,0,1-1.5,1,1.32,1.32,0,0,1-1.08-1.06c-.12-.54-.25-1.09-.42-1.62s-.47-1.28-.7-1.93a10.65,10.65,0,0,0-1.55-2.85A7.94,7.94,0,0,0,65.81,44a4.17,4.17,0,0,0-1.63-.45c-.42,0-.5-.07-.53.55,0,.43,0,.85-.07,1.27a.36.36,0,0,0,.21.44,9.65,9.65,0,0,1,3.77,3.7,11.79,11.79,0,0,1,1.14,2.66c.17.6.26,1.22.43,1.82a.67.67,0,0,1-.13.62c-.08.12-.17.23-.26.34a1.29,1.29,0,0,1-1.55.23,1.54,1.54,0,0,1-.7-1c-.15-.59-.27-1.19-.46-1.76a8.56,8.56,0,0,0-1.66-2.84,8.14,8.14,0,0,0-.85-.81A.33.33,0,0,0,63,49c-.17.87-.32,1.75-.57,2.6-.35,1.22-.79,2.42-1.2,3.62a.83.83,0,0,1-.2.34,1.23,1.23,0,0,1-2-.08,1.18,1.18,0,0,1-.21-1.33c.08-.19.16-.37.23-.57.21-.67.43-1.35.62-2,.24-.85.45-1.7.66-2.56.12-.5.22-1,.31-1.51s.15-1,.22-1.43.08-.68.12-1c.07-.67.17-1.34.19-2a17,17,0,0,0,0-2A12.43,12.43,0,0,0,60.82,39a9,9,0,0,0-.8-2.23,5.53,5.53,0,0,0-2-2.17,6.76,6.76,0,0,0-.72-.46.82.82,0,0,0-.49,0,.51.51,0,0,0,0,.36c.18.47.43.93.57,1.41.2.66.34,1.34.49,2a12.32,12.32,0,0,1,.26,2.91c0,.29,0,.58,0,.87a9.53,9.53,0,0,1-.15,2.06c-.15.61-.16,1.25-.3,1.86s-.37,1.48-.6,2.2-.46,1.18-.65,1.79a14.83,14.83,0,0,1-1.17,2.64c-.37.71-.78,1.4-1.2,2.08A5.84,5.84,0,0,1,52.7,56a1.15,1.15,0,0,1-.9.34,1.53,1.53,0,0,1-1.07-.83.92.92,0,0,1,0-1c.12-.2.24-.4.37-.58a25,25,0,0,0,2-3.5,12.43,12.43,0,0,0,.56-1.24c.32-.86.6-1.73.89-2.6a9.18,9.18,0,0,0,.32-1.17c.1-.49.16-1,.22-1.48.11-.84.26-1.68.31-2.53a12.78,12.78,0,0,0-.19-2.89,12.15,12.15,0,0,0-.7-2.51,6.91,6.91,0,0,0-1.43-2.29,9.74,9.74,0,0,0-1.51-1.28,9.25,9.25,0,0,0-1.39-.64,3.23,3.23,0,0,0-.64-.27c-.68-.11-1.37-.19-2-.27a6.87,6.87,0,0,0-1.42-.09,6.08,6.08,0,0,0-2.54.61A4.56,4.56,0,0,1,43,32c-.16-.05-.25,0-.32.16l-.5.37.33.22h.07v0h.7ZM79.08,63.91c-.29.07-.57.12-.86.2-.7.18-1.39.39-2.09.54s-1.6.31-2.4.45-1.64.29-2.46.42c-.65.11-1.31.18-2,.27L67.81,66c-.32,0-.64.12-1,.15-.7.08-1.41.14-2.11.2-.17,0-.35,0-.53,0-.55.07-1.09.16-1.65.21s-1,0-1.51.05l-.77,0c-.63.06-1.26.12-1.89.16l-1.25.06-1.88.1-1.89,0c-2.39,0-4.78.06-7.16-.14-.71-.06-1.42,0-2.13-.06a1.61,1.61,0,0,1-.22,0c-.55,0-1.1-.12-1.65-.16s-1.07,0-1.6,0c-.25,0-.5-.07-.76-.09s-.76-.09-1.15-.12a8.66,8.66,0,0,1-.89-.07,7,7,0,0,0-1.7-.15L36,66.16l-.09,0L35.14,66l-1.49-.18-1.34-.19-1.9-.29-.15,0L28.74,65c-.48-.09-1-.17-1.44-.27l-1.16-.26c-.42-.1-.85-.19-1.26-.33a1.62,1.62,0,0,0-.95,0s0,.07,0,.09a3.71,3.71,0,0,0,.27.29,17.28,17.28,0,0,0,3.5,2.58c1.1.58,2.23,1.09,3.37,1.59a21.39,21.39,0,0,0,2.07.77c.78.25,1.58.46,2.37.67.5.13,1,.24,1.52.35l1.92.38c.42.08.85.13,1.28.2s1,.17,1.44.23,1.18.09,1.76.18a15,15,0,0,0,2.68.19l.3,0c.61,0,1.23.14,1.84.14,2.78,0,5.56,0,8.34,0H57c.51,0,1-.12,1.52-.15s.93,0,1.4,0L61,71.38l.49-.07,2.91-.38c.53-.07,1.06-.13,1.58-.25.86-.18,1.7-.39,2.55-.61s1.63-.39,2.42-.68c1.18-.44,2.35-.93,3.5-1.46a16.48,16.48,0,0,0,4.83-3.49,1.08,1.08,0,0,0,.11-.18l.2-.43Zm-10.82-.62.53-.07c.52-.06,1-.1,1.57-.19s1-.2,1.43-.29c.88-.15,1.77-.26,2.64-.44,1-.22,2.07-.49,3.1-.74.54-.14,1.08-.27,1.62-.43.94-.28,1.89-.54,2.81-.86a22.23,22.23,0,0,0,3.53-1.46c.64-.37,1.31-.7,2-1.06a8.5,8.5,0,0,0,2.18-1.83,2.63,2.63,0,0,0,.27-3.15,8.85,8.85,0,0,0-3.07-2.61c-1-.56-2-1-3-1.46-.36-.17-.75-.29-1.12-.43l-.79-.3-1.21-.39-.87-.22c-.21-.27-.53-.22-.81-.26h-.1a1.3,1.3,0,0,0-.31-.16c-.11,0-.28,0-.33.08s0,.23,0,.35.25.41.4.6a.59.59,0,0,0,.29.2l2,.7a8.21,8.21,0,0,1,3,1.8A2.83,2.83,0,0,1,84.83,52a4.42,4.42,0,0,1,0,1,1.64,1.64,0,0,1-.05.5A3.2,3.2,0,0,1,84,54.85a9.35,9.35,0,0,1-3.24,1.92c-.71.28-1.46.48-2.19.71-.38.12-.76.24-1.14.33-.79.18-1.59.34-2.38.5l-1,.2-1.2.18c-.77.13-1.54.29-2.31.4s-1.57.19-2.35.27l-2,.22-1.9.16c-.92.09-1.84.2-2.76.26s-1.89.08-2.84.11-2.07.1-3.11.1c-2.65,0-5.31,0-8-.05-.76,0-1.51-.07-2.26-.1s-1.63,0-2.45-.06c-.31,0-.61,0-.92-.08l-.75-.07-1.14-.06L38,59.58l-1.79-.17c-.32,0-.64-.08-1-.13l-1.49-.2-1-.14c-.41-.07-.81-.16-1.21-.22s-1-.13-1.44-.21-1-.2-1.43-.31-1.23-.29-1.85-.45c-.37-.09-.74-.18-1.1-.3s-.85-.29-1.27-.46c-.57-.22-1.15-.42-1.7-.68a7.37,7.37,0,0,1-2.42-1.68,2.91,2.91,0,0,1-.8-1.85,2.66,2.66,0,0,1,.88-2,9.94,9.94,0,0,1,1.35-1.05c.26-.18.48-.48.87-.44l0,0c.3-.14.6-.3.91-.42s.85-.31,1.27-.46a.29.29,0,0,0,.16-.1c.18-.32.34-.65.52-1l.34-.59h-.41c-.28-.06-.5.1-.75.18-.55.18-1.13.31-1.7.46-.31.09-.63.14-.93.25C21.06,48,20,48.39,19,48.81a19.57,19.57,0,0,0-2.19,1,19.51,19.51,0,0,0-2.23,1.47,4.72,4.72,0,0,0-1.71,2.11,1.86,1.86,0,0,0-.19.87,2.79,2.79,0,0,0,.68,1.57,13.9,13.9,0,0,0,1.54,1.44,19.88,19.88,0,0,0,4.46,2.37c.83.33,1.67.63,2.52.93.54.19,1.1.36,1.65.51.78.22,1.56.43,2.35.63.56.14,1.12.27,1.69.39s1.35.28,2,.41l1.31.23,1,.16c.42.07.84.16,1.27.22s.9.11,1.36.17c.92.12,1.83.25,2.75.36.3,0,.6,0,.9.07l2.25.26c.72.07,1.44.11,2.16.16l3,.16c.57,0,1.14,0,1.71,0,.75,0,1.5,0,2.26,0l5.9-.1c.86,0,1.71,0,2.56-.06s1.6-.1,2.4-.14c.16,0,.33,0,.49,0l2.41-.22,1-.1c.43,0,.85-.06,1.27-.11l1.79-.21Z" transform="translate(-10.02 -28.53)"/></svg>