<svg id="Layer_1" data-name="Layer 1" xmlns="http://www.w3.org/2000/svg" viewBox="0 0 62.73 57.96"><path d="M61,57.42a1,1,0,0,0-.64.19L34.92,68.52a.73.73,0,0,0-.52.79,31.39,31.39,0,0,1,0,3.36,3.3,3.3,0,0,1-5.09,2.53,3.18,3.18,0,0,1-1.52-2.71c0-.46,0-.92,0-1.38s-.13-.58-.49-.57-.46.25-.46.59c0,2,0,4,0,6A3.32,3.32,0,0,1,21.69,80a2.88,2.88,0,0,1-1.48-2.29,23.31,23.31,0,0,1-.06-2.51c0-2.42,0-4.84,0-7.26a19.4,19.4,0,0,1,5.17-12.53Q32.89,47,40.46,38.69l6.21-6.85c.18-.2.42-.35.18-.71a5.65,5.65,0,0,1,.35-6.59,5.56,5.56,0,0,1,6.27-1.69A62.66,62.66,0,0,1,81.28,40.34a5.58,5.58,0,0,1-1.85,9q-6,2.64-12.11,5.21a.81.81,0,0,0-.61.92,19.83,19.83,0,0,1,0,2,2.85,2.85,0,1,1-5.7.18ZM71.8,46.73l-.08-.15A63,63,0,0,0,49,32.69c-.16-.06-.38-.19-.48,0s.15.27.26.38a4.64,4.64,0,0,1,1.57,5.1,4.78,4.78,0,0,1-7.9,2c-.24-.24-.36-.42-.69,0Q36,46.41,30.29,52.74c-.28.29-.3.45,0,.78a4.71,4.71,0,0,1,.29,6.11,4.84,4.84,0,0,1-6.12,1.21c-.33-.18-.47-.17-.64.18a16.91,16.91,0,0,0-1.62,5.67c-.31,3.49-.09,7-.13,10.49a1.3,1.3,0,0,0,1.37,1.37,1.31,1.31,0,0,0,1.44-1.3,5.94,5.94,0,0,0,0-.73c0-1.8,0-3.61,0-5.41a2.38,2.38,0,1,1,4.75,0c0,.38,0,.75,0,1.12,0,1,.55,1.58,1.46,1.56s1.37-.57,1.37-1.59c0-1.36,0-2.73,0-4.09a6.46,6.46,0,0,1,1.85-4.59.85.85,0,0,0,.23-.92,4.72,4.72,0,0,1,8.3-4c.31.42.53.43,1,.24q7.39-3.23,14.81-6.41a2.88,2.88,0,0,1,4.29,2.8c0,.84,0,1.67,0,2.51a.86.86,0,0,0,.57.82.84.84,0,0,0,.92-.13,1.24,1.24,0,0,0,.39-1c0-1.37,0-2.73,0-4.09a4.88,4.88,0,0,1,3.27-5C69.33,47.82,70.55,47.27,71.8,46.73Zm5.1-8.1a54.42,54.42,0,0,0-4.32-3.74A62.68,62.68,0,0,0,53,24.69c-2.71-.87-4.88.53-5.12,3.23a2.72,2.72,0,0,0,1.94,3A64.45,64.45,0,0,1,71.1,43.43c.17.14.3.38.59.37C72.23,40.93,73.8,39.07,76.9,38.63Zm4,6a3.81,3.81,0,0,0-2.37-3.85A3.59,3.59,0,0,0,74.43,42a3.65,3.65,0,0,0-.22,4.3A1,1,0,0,1,73.68,48c-1.69.74-3.39,1.47-5.08,2.19a2.92,2.92,0,0,0-1.76,1.93c0,.16-.13.37,0,.5s.32,0,.47-.07.45-.18.67-.28l10.7-4.61A3.41,3.41,0,0,0,80.94,44.63ZM34.67,66.56l.8-.32,14.21-6.12,10.83-4.66a.71.71,0,0,0,.14-1.3,1.15,1.15,0,0,0-1.25,0l-8.16,3.53L37.52,63.61A4.92,4.92,0,0,0,34.67,66.56Zm14-29.69a2.92,2.92,0,0,0-1.11-2.37c-.32-.27-.52-.25-.81.08-1,1.12-2,2.23-3,3.31-.33.35-.26.56,0,.86a2.9,2.9,0,0,0,3.11.62A2.67,2.67,0,0,0,48.66,36.87ZM26.72,59.53a2.77,2.77,0,0,0,2.66-1.6A2.74,2.74,0,0,0,29,55c-.21-.29-.38-.43-.7-.07-.88,1-1.86,2-2.66,3.09-.22.31-.69.65-.53,1s.77.51,1.26.58Zm9.59,1.55c0,1,0,1,.65.7,1.33-.57,2.64-1.17,4-1.71.57-.23.47-.44.11-.75a2.64,2.64,0,0,0-2.94-.43A2.6,2.6,0,0,0,36.31,61.08Z" transform="translate(-20.13 -22.52)"/><path d="M48.67,53.84a4.73,4.73,0,1,1,4.75-4.73A4.67,4.67,0,0,1,48.67,53.84Zm0-7.53a2.81,2.81,0,1,0,2.84,2.8A2.73,2.73,0,0,0,48.66,46.31Z" transform="translate(-20.13 -22.52)"/><path d="M60.46,43.69a.93.93,0,0,1-1.31.83A3.12,3.12,0,0,1,57.9,43.3.91.91,0,0,1,58.66,42,2.35,2.35,0,0,1,60.46,43.69Z" transform="translate(-20.13 -22.52)"/><path d="M39.53,50.3a.88.88,0,0,1-.5.85.86.86,0,0,1-1-.08,6.91,6.91,0,0,1-1-1,.83.83,0,0,1,.11-1.23.87.87,0,0,1,1.19-.08A2.57,2.57,0,0,1,39.53,50.3Z" transform="translate(-20.13 -22.52)"/><path d="M58.37,48.56a2.12,2.12,0,0,1-1.6,1.61.92.92,0,0,1-.83-1.35A2.84,2.84,0,0,1,57,47.76.92.92,0,0,1,58.37,48.56Z" transform="translate(-20.13 -22.52)"/><path d="M41.54,46.37A.92.92,0,0,1,40.77,45a3,3,0,0,1,1-1,.94.94,0,0,1,1.43.79A2.18,2.18,0,0,1,41.54,46.37Z" transform="translate(-20.13 -22.52)"/><path d="M32.71,62.81a2.19,2.19,0,0,1-1.63,1.62.87.87,0,0,1-.8-.48.84.84,0,0,1,.06-1,6.17,6.17,0,0,1,.89-.88.84.84,0,0,1,1,0A1,1,0,0,1,32.71,62.81Z" transform="translate(-20.13 -22.52)"/><path d="M36.49,54.31a2.2,2.2,0,0,1-1.58,1.57.91.91,0,0,1-.82-.46.82.82,0,0,1,0-1,6.29,6.29,0,0,1,.93-.93.82.82,0,0,1,1,0A.9.9,0,0,1,36.49,54.31Z" transform="translate(-20.13 -22.52)"/><path d="M55.51,40a2.12,2.12,0,0,1-1.61,1.6.89.89,0,0,1-.81-.48.84.84,0,0,1,.07-1,6.1,6.1,0,0,1,.88-.88.84.84,0,0,1,1-.06A.9.9,0,0,1,55.51,40Z" transform="translate(-20.13 -22.52)"/><path d="M25.82,64.92c.71,0,1.62.7,1.63,1.27a1,1,0,0,1-1,1c-.69,0-1.59-.77-1.58-1.33A.92.92,0,0,1,25.82,64.92Z" transform="translate(-20.13 -22.52)"/><path d="M43.59,54.79a.9.9,0,0,1-1,.93c-.75,0-1.59-.72-1.57-1.31a1,1,0,0,1,.92-.92C42.68,53.48,43.59,54.22,43.59,54.79Z" transform="translate(-20.13 -22.52)"/><path d="M65.48,46.27a.92.92,0,0,1-.76.88,1.94,1.94,0,0,1-1.73-1,.9.9,0,0,1,.42-1.13A1.64,1.64,0,0,1,65.48,46.27Z" transform="translate(-20.13 -22.52)"/></svg>