<svg id="Layer_1" data-name="Layer 1" xmlns="http://www.w3.org/2000/svg" viewBox="0 0 33.59 36.08"><defs><style>.cls-1{fill:#25e521;}</style></defs><path class="cls-1" d="M20,30.79c-.88,0-1.76,0-2.64,0A2.37,2.37,0,0,1,15,29c-.1-.35-.21-.7-.3-1.06A9.67,9.67,0,0,0,13,24.29a9.93,9.93,0,0,1-2.09-4.62A8.55,8.55,0,0,1,13.69,12,8.79,8.79,0,0,1,22.8,9.92a8.94,8.94,0,0,1,6.32,7.16,7.87,7.87,0,0,1-.94,5.41A17.58,17.58,0,0,1,26.58,25a5.13,5.13,0,0,0-.89,1.74c-.23.78-.45,1.56-.69,2.34a2.32,2.32,0,0,1-2.3,1.73H20Zm0-1.73h2.16c1,0,1.06,0,1.34-1A11.78,11.78,0,0,1,25,24.23a22.84,22.84,0,0,0,1.43-2.1,6.51,6.51,0,0,0,1-4.7,7.24,7.24,0,0,0-5.58-6,7.07,7.07,0,0,0-7.77,2.74A6.38,6.38,0,0,0,13,20.81a10.58,10.58,0,0,0,1.53,2.7,9.26,9.26,0,0,1,1.76,3.67c.11.44.27.86.38,1.29a.71.71,0,0,0,.8.59Z" transform="translate(-3.21 -1.96)"/><path class="cls-1" d="M19.89,36.42H23c.15,0,.35-.09.42.1s-.07.31-.17.43a3.38,3.38,0,0,1-2.12,1,6.45,6.45,0,0,1-3.48-.32,2,2,0,0,1-1.09-.81c-.16-.28-.11-.39.23-.39Z" transform="translate(-3.21 -1.96)"/><path class="cls-1" d="M20,34.19c-1.07,0-2.14,0-3.21,0-.48,0-.46-.24-.45-.56s-.05-.55.42-.55c2.15,0,4.31,0,6.46,0,.48,0,.42.25.42.54s.06.59-.43.57C22.09,34.17,21,34.19,20,34.19Z" transform="translate(-3.21 -1.96)"/><path class="cls-1" d="M33.93,18.33h2c.52,0,.85.28.85.71s-.31.73-.86.73q-2,0-4,0c-.54,0-.84-.26-.85-.7s.31-.73.86-.74Z" transform="translate(-3.21 -1.96)"/><path class="cls-1" d="M8.91,6.61a.74.74,0,0,1,.54.25c.92.91,1.83,1.82,2.74,2.74a.74.74,0,0,1,.07,1.13.73.73,0,0,1-1.1-.09L8.43,7.91A.75.75,0,0,1,8.22,7,.69.69,0,0,1,8.91,6.61Z" transform="translate(-3.21 -1.96)"/><path class="cls-1" d="M20,32.51c-1.08,0-2.16,0-3.25,0-.52,0-.38-.31-.41-.59s0-.49.42-.49c2.17,0,4.33,0,6.5,0,.55,0,.34.37.37.62s0,.47-.38.46C22.12,32.49,21,32.51,20,32.51Z" transform="translate(-3.21 -1.96)"/><path class="cls-1" d="M19.94,34.82c1.09,0,2.17,0,3.25,0,.55,0,.37.33.39.6s0,.49-.41.49q-3.23,0-6.45,0c-.51,0-.41-.29-.43-.59s0-.52.45-.5C17.81,34.84,18.87,34.82,19.94,34.82Z" transform="translate(-3.21 -1.96)"/><path class="cls-1" d="M6,19.77c-.66,0-1.31,0-2,0s-.82-.28-.82-.72A.74.74,0,0,1,4,18.33H8c.52,0,.85.28.85.7s-.31.74-.86.74S6.65,19.78,6,19.77Z" transform="translate(-3.21 -1.96)"/><path class="cls-1" d="M19.28,4.68c0-.64,0-1.28,0-1.92a.73.73,0,1,1,1.45,0q0,1.93,0,3.87c0,.5-.27.79-.7.8a.72.72,0,0,1-.75-.8c0-.66,0-1.31,0-2Z" transform="translate(-3.21 -1.96)"/><path class="cls-1" d="M31.91,29.92a.75.75,0,0,1-.42.65.62.62,0,0,1-.76-.08c-1-1-2-1.95-2.93-2.95a.63.63,0,0,1,.08-.94.64.64,0,0,1,.95,0c1,.95,1.94,1.93,2.91,2.91A.67.67,0,0,1,31.91,29.92Z" transform="translate(-3.21 -1.96)"/><path class="cls-1" d="M8.88,30.59a.7.7,0,0,1-.65-.41.65.65,0,0,1,.09-.76c.94-1,1.88-1.9,2.84-2.84a.65.65,0,0,1,.95,0,.63.63,0,0,1,.08,1c-.94,1-1.9,1.92-2.87,2.88A.57.57,0,0,1,8.88,30.59Z" transform="translate(-3.21 -1.96)"/><path class="cls-1" d="M31.14,6.6a.73.73,0,0,1,.7.44.74.74,0,0,1-.21.87L29.5,10a4.47,4.47,0,0,1-.44.43.68.68,0,0,1-1,0,.66.66,0,0,1-.05-1c.87-.91,1.77-1.79,2.66-2.67A.76.76,0,0,1,31.14,6.6Z" transform="translate(-3.21 -1.96)"/><path class="cls-1" d="M19.79,11.89h.38a.73.73,0,1,1,0,1.45,5.56,5.56,0,0,0-1.28.18,5,5,0,0,0-3.77,4.54v0c0,.75-.31,1.09-.82,1s-.7-.44-.65-1.14A6.58,6.58,0,0,1,19.79,11.89Z" transform="translate(-3.21 -1.96)"/></svg>