<svg id="Layer_1" data-name="Layer 1" xmlns="http://www.w3.org/2000/svg" viewBox="0 0 33.79 33.83"><defs><style>.cls-1{fill:#25e521;}</style></defs><path class="cls-1" d="M3.11,21.32V18.67a.47.47,0,0,0,.06-.09c.07-.54.13-1.07.21-1.6a15.15,15.15,0,0,1,1.41-4.36A16,16,0,0,1,7.18,9a18.52,18.52,0,0,1,3.36-3,16.67,16.67,0,0,1,3.71-1.9,13.65,13.65,0,0,1,3.32-.81c.4,0,.8-.13,1.19-.19h2.45a.47.47,0,0,0,.09.06c.72.11,1.45.2,2.16.33a15.7,15.7,0,0,1,5.6,2.28,15.26,15.26,0,0,1,3.37,2.83c.46.55,1,1.07,1.36,1.66a15.64,15.64,0,0,1,2.46,5.14,28,28,0,0,1,.6,3.29,9.53,9.53,0,0,1,0,1.85c0,.73-.1,1.46-.19,2.19a14.09,14.09,0,0,1-1.26,4.22,16.83,16.83,0,0,1-4.52,5.95,17.66,17.66,0,0,1-3.47,2.29,14.68,14.68,0,0,1-3.75,1.32,20.46,20.46,0,0,1-2.67.39,16.79,16.79,0,0,1-4-.24A17.91,17.91,0,0,1,12.2,35a17,17,0,0,1-5.43-4.5,16.31,16.31,0,0,1-2.7-4.86,16,16,0,0,1-.83-3.47C3.21,21.87,3.15,21.6,3.11,21.32ZM19.88,32.21c.84-.09,1.69-.12,2.52-.28a11.68,11.68,0,0,0,4.29-1.8,12.73,12.73,0,0,0,3-2.73c.22-.28.55-.57.44-1a3.65,3.65,0,0,0-.39-1,5.5,5.5,0,0,0-2.25-2A16.43,16.43,0,0,0,23.63,22a19.42,19.42,0,0,0-3.93-.51,6.24,6.24,0,0,0-1.22.13c-1,.17-2,.31-3,.57a12.94,12.94,0,0,0-3.47,1.47,4.58,4.58,0,0,0-2,2.16c-.14.37-.34.74,0,1.14a13.62,13.62,0,0,0,2.57,2.63A12.19,12.19,0,0,0,19.88,32.21Zm5.16-19a4.89,4.89,0,0,0-4.9-5.05,4.91,4.91,0,0,0-5.2,4.71,5,5,0,0,0,5,5.43A5,5,0,0,0,25,13.23Z" transform="translate(-3.11 -3.09)"/></svg>